<?xml version="1.0" encoding="utf-8"?>
<!-- Generator: Adobe Illustrator 19.1.0, SVG Export Plug-In . SVG Version: 6.00 Build 0)  -->
<svg version="1.1" id="Layer_1" xmlns="http://www.w3.org/2000/svg" xmlns:xlink="http://www.w3.org/1999/xlink" x="0px" y="0px"
	 viewBox="382 6.5 1375.7 780.5" style="enable-background:new 382 6.5 1375.7 780.5;" xml:space="preserve">
<style type="text/css">
	.st0{opacity:0.5;}
	.st1{fill:none;stroke:#5B666E;stroke-width:6;stroke-linecap:round;stroke-linejoin:round;stroke-miterlimit:10;}
	.st2{display:none;}
	.st3{display:inline;}
	.st4{fill:none;stroke:#E95B34;stroke-width:6;stroke-linecap:round;stroke-linejoin:round;stroke-miterlimit:10;}
	.st5{display:inline;fill:none;stroke:#E95B34;stroke-width:6;stroke-linecap:round;stroke-linejoin:round;stroke-miterlimit:10;}
	.st6{display:inline;fill:none;stroke:#F36F37;stroke-width:6;stroke-linecap:round;stroke-linejoin:round;stroke-miterlimit:10;}
	.st7{fill:none;stroke:#0D78BC;stroke-width:6;stroke-linecap:round;stroke-linejoin:round;stroke-miterlimit:10;}
	.st8{fill:none;stroke:#1CA8DB;stroke-width:6;stroke-linecap:round;stroke-linejoin:round;stroke-miterlimit:10;}
</style>
<g class="st0">
	<g>
		<g>
			<path class="st1" d="M1106.2,611c0,13-16.2,23.5-36.3,23.5c-20,0-36.3-10.5-36.3-23.5s16.2-23.5,36.3-23.5S1106.2,598,1106.2,611
				z"/>
			<path class="st1" d="M1187.4,611c0,6.7-8.4,12.1-18.7,12.1c-10.3,0-18.7-5.4-18.7-12.1c0-6.7,8.4-12.1,18.7-12.1
				C1179.1,598.9,1187.4,604.3,1187.4,611z"/>
			<path class="st1" d="M952.5,611c0-6.7,8.4-12.1,18.7-12.1s18.7,5.4,18.7,12.1c0,6.7-8.4,12.1-18.7,12.1
				C960.8,623.2,952.5,617.7,952.5,611z"/>
			<rect x="461.6" y="80.1" class="st1" width="1216.6" height="457.3"/>
			<path class="st1" d="M385.1,537.4h1369.6H385.1z"/>
			<path class="st1" d="M1693.1,9.7H446.8c-34.1,0-61.7,17.9-61.7,40v585.6c0,22.1,27.6,40,61.7,40h454.9h31.2h277.6h62.1H1693
				c34.1,0,61.7-17.9,61.7-40V49.7C1754.8,27.6,1727.1,9.7,1693.1,9.7z"/>
			<rect x="931.1" y="675.3" class="st1" width="277.6" height="75.2"/>
			<rect x="845.2" y="750.5" class="st1" width="449.4" height="33.4"/>
		</g>
		<g class="st2">
			<g class="st3">
				<g>
					<polygon class="st4" points="832.4,139.3 1307.5,139.3 1266.3,442.6 1070,478.3 875.6,445.1 					"/>
				</g>
			</g>
			<polyline class="st5" points="967.8,335.5 973,371.6 1063.2,388.8 1156.6,370.8 1167,293.5 964.9,293.5 964.2,293.5 954.9,222.1 
				1175,222.1 			"/>
			<polyline class="st6" points="1068.5,174.9 1249.6,174.9 1217.8,413.1 1068.5,440.1 			"/>
		</g>
	</g>
	<g class="st2">
		<g class="st3">
			<path class="st1" d="M1106.2,1554.1c0,13-16.2,23.5-36.3,23.5c-20,0-36.3-10.5-36.3-23.5s16.2-23.5,36.3-23.5
				S1106.2,1541.1,1106.2,1554.1z"/>
			<path class="st1" d="M1187.4,1554.1c0,6.7-8.4,12.1-18.7,12.1c-10.3,0-18.7-5.4-18.7-12.1s8.4-12.1,18.7-12.1
				C1179.1,1542,1187.4,1547.4,1187.4,1554.1z"/>
			<path class="st1" d="M952.4,1554.1c0-6.7,8.4-12.1,18.7-12.1s18.7,5.4,18.7,12.1s-8.4,12.1-18.7,12.1
				C960.8,1566.2,952.4,1560.8,952.4,1554.1z"/>
			<rect x="461.6" y="1023.2" class="st1" width="1216.6" height="457.3"/>
			<path class="st1" d="M385.1,1480.5h1369.6H385.1z"/>
			<path class="st1" d="M1693.1,952.7H446.8c-34.1,0-61.7,17.9-61.7,40v585.6c0,22.1,27.6,40,61.7,40h454.9h31.2h277.6h62.1H1693
				c34.1,0,61.7-17.9,61.7-40V992.8C1754.8,970.6,1727.1,952.7,1693.1,952.7z"/>
			<rect x="931.1" y="1618.4" class="st1" width="277.6" height="75.2"/>
			<rect x="845.2" y="1693.6" class="st1" width="449.4" height="33.4"/>
		</g>
		<g class="st3">
			<g>
				<g>
					<polygon class="st7" points="832.4,1082.4 1307.5,1082.4 1266.3,1385.6 1070,1421.3 875.6,1388.2 					"/>
				</g>
			</g>
			<polyline class="st8" points="1068.5,1118 1249.6,1118 1217.8,1356.2 1068.5,1383.2 			"/>
			<polyline class="st7" points="967.8,1278.6 973,1314.6 1063.2,1331.9 1156.6,1313.9 1167,1236.6 964.2,1236.6 1175,1165.1 
				954.9,1165.1 			"/>
		</g>
	</g>
</g>
</svg>
