<?xml version="1.0" encoding="utf-8"?>
<!-- Generator: Adobe Illustrator 19.1.0, SVG Export Plug-In . SVG Version: 6.00 Build 0)  -->
<svg version="1.1" id="Layer_1" xmlns="http://www.w3.org/2000/svg" xmlns:xlink="http://www.w3.org/1999/xlink" x="0px" y="0px"
	 viewBox="-250 377 90 40" style="enable-background:new -250 377 90 40;" xml:space="preserve">
<style type="text/css">
	.st0{display:none;}
	.st1{fill:#4B5F6A;}
</style>
<path class="st0" d="M-240,405.8c-0.7,0-1.2,0.6-1.2,1.2s0.6,1.2,1.2,1.2h10c0.7,0,1.2-0.6,1.2-1.2s-0.6-1.2-1.2-1.2h-3.8v-17.5h3.8
	c0.7,0,1.2-0.6,1.2-1.2s-0.6-1.2-1.2-1.2h-10c-0.7,0-1.2,0.6-1.2,1.2s0.6,1.2,1.2,1.2h3.8v17.5H-240z"/>
<path class="st1" d="M-162.5,377h-85c-1.4,0-2.5,1.1-2.5,2.5v35c0,1.4,1.1,2.5,2.5,2.5h85c1.4,0,2.5-1.1,2.5-2.5v-35
	C-160,378.1-161.1,377-162.5,377z M-165,412h-80v-30h80V412z"/>
</svg>
