<?xml version="1.0" encoding="utf-8"?>
<!-- Generator: Adobe Illustrator 19.1.0, SVG Export Plug-In . SVG Version: 6.00 Build 0)  -->
<svg version="1.1" id="Layer_1" xmlns="http://www.w3.org/2000/svg" xmlns:xlink="http://www.w3.org/1999/xlink" x="0px" y="0px"
	 viewBox="-247.5 384.5 25 25" style="enable-background:new -247.5 384.5 25 25;" xml:space="preserve">
<style type="text/css">
	.st0{fill:#4B5F6A;}
</style>
<path class="st0" d="M-185,409.5h20c1.4,0,2.5-1.1,2.5-2.5v-20c0-1.4-1.1-2.5-2.5-2.5h-20c-1.4,0-2.5,1.1-2.5,2.5v20
	C-187.5,408.4-186.4,409.5-185,409.5z M-182.5,389.5h15v15h-15V389.5z"/>
<path class="st0" d="M-215,409.5h20c1.4,0,2.5-1.1,2.5-2.5v-20c0-1.4-1.1-2.5-2.5-2.5h-20c-1.4,0-2.5,1.1-2.5,2.5v20
	C-217.5,408.4-216.4,409.5-215,409.5z M-212.5,389.5h15v15h-15V389.5z"/>
<path class="st0" d="M-245,409.5h20c1.4,0,2.5-1.1,2.5-2.5v-20c0-1.4-1.1-2.5-2.5-2.5h-20c-1.4,0-2.5,1.1-2.5,2.5v20
	C-247.5,408.4-246.4,409.5-245,409.5z M-242.5,389.5h15v15h-15V389.5z"/>
<path class="st0" d="M-170.4,392.4c-0.5-0.5-1.3-0.5-1.8,0l-2.9,2.9l-2.9-2.9c-0.5-0.5-1.3-0.5-1.8,0c-0.5,0.5-0.5,1.3,0,1.8
	l2.9,2.9l-2.9,2.9c-0.5,0.5-0.5,1.3,0,1.8c0.2,0.2,0.6,0.4,0.9,0.4s0.6-0.1,0.9-0.4l2.9-2.9l2.9,2.9c0.2,0.2,0.6,0.4,0.9,0.4
	s0.6-0.1,0.9-0.4c0.5-0.5,0.5-1.3,0-1.8l-2.9-2.9l2.9-2.9C-169.9,393.6-169.9,392.9-170.4,392.4z"/>
<path class="st0" d="M-231.2,399.5h-7.5c-0.7,0-1.2,0.6-1.2,1.2s0.6,1.2,1.2,1.2h7.5c0.7,0,1.2-0.6,1.2-1.2
	S-230.6,399.5-231.2,399.5z"/>
<path class="st0" d="M-201.2,392h-7.5c-0.7,0-1.2,0.6-1.2,1.2v7.5c0,0.7,0.6,1.2,1.2,1.2h7.5c0.7,0,1.2-0.6,1.2-1.2v-7.5
	C-200,392.6-200.6,392-201.2,392z M-202.5,399.5h-5v-5h5V399.5z"/>
</svg>
